<?xml version="1.0" encoding="utf-8"?>
<!-- Generator: Adobe Illustrator 25.0.1, SVG Export Plug-In . SVG Version: 6.00 Build 0)  -->
<svg version="1.0" id="katman_1" xmlns="http://www.w3.org/2000/svg" xmlns:xlink="http://www.w3.org/1999/xlink" x="0px" y="0px"
	 viewBox="0 0 560 400" style="enable-background:new 0 0 560 400;" xml:space="preserve">
<style type="text/css">
	.st0{fill:#9D9795;}
	.st1{fill:#CFB991;}
</style>
<g transform="matrix(2.77512 0 0 2.77512 96.7975 101.478)">
	<path d="M1.2,70.2L12,44.6h14l7.8-18.3h-14L30.7,0.8h77.1c6.8,0,16.3,0.8,20.8,7.6c4.5,6.8,1.1,14.8-1,19.7
		c-5.5,12.9-13.5,21.5-34.5,21.5H78.7L70,70.2H1.2z"/>
	<path class="st0" d="M124.7,11.1c-2.5-3.8-7.8-5.4-16.8-5.4H33.8L27,21.7H41L29.2,49.4h-14L8.4,65.5h58.5l6.8-16.1H59.5l1.9-4.4
		h31.8c20.4,0,26-8.9,30.1-18.7C125.6,20.9,127.6,15.4,124.7,11.1z M71.3,21.7h23.4c1.7,0,2.5,0.4,2.7,0.7c0.2,0.2,0.1,0.9-0.3,2
		c-1.2,2.8-4,4.5-7.5,4.5H68.2L71.3,21.7z"/>
	<path class="st1" d="M107.9,8.1H35.5l-4.7,11.2h13.9L30.8,51.8H16.9L12.1,63h53.1L70,51.8H55.8l4-9.4h33.5c19.2,0,24-8.1,27.8-17.2
		C125,16.2,127.1,8.1,107.9,8.1L107.9,8.1z M89.5,31.3h-25l5.1-12h25c4.4,0,6.2,2.3,4.6,6C97.6,29,94,31.3,89.5,31.3z"/>
</g>
</svg>
